<svg width="108" height="49" viewBox="0 0 108 49" fill="none" xmlns="http://www.w3.org/2000/svg">
<g clip-path="url(#clip0_322_292)">
<rect width="108" height="39" fill="#B5BD9A"/>
<path d="M18.1306 16.968C18.0986 16.9147 17.9866 16.8347 17.7946 16.728C17.6026 16.6107 17.3626 16.488 17.0746 16.36C16.7866 16.232 16.4719 16.12 16.1306 16.024C15.7892 15.928 15.4479 15.88 15.1066 15.88C14.6586 15.88 14.3119 15.96 14.0666 16.12C13.8212 16.2693 13.6986 16.504 13.6986 16.824C13.6986 17.08 13.7892 17.2827 13.9706 17.432C14.1626 17.5813 14.4346 17.7147 14.7866 17.832C15.1386 17.9387 15.5706 18.0667 16.0826 18.216C16.8079 18.408 17.4372 18.6427 17.9706 18.92C18.5039 19.1867 18.9092 19.5333 19.1866 19.96C19.4746 20.3867 19.6186 20.952 19.6186 21.656C19.6186 22.296 19.5012 22.84 19.2666 23.288C19.0319 23.7253 18.7119 24.0827 18.3066 24.36C17.9119 24.6267 17.4586 24.824 16.9466 24.952C16.4346 25.0693 15.9066 25.128 15.3626 25.128C14.8079 25.128 14.2372 25.0747 13.6506 24.968C13.0746 24.8507 12.5199 24.6907 11.9866 24.488C11.4532 24.2747 10.9626 24.0187 10.5146 23.72L11.6666 21.432C11.7092 21.4853 11.8479 21.5867 12.0826 21.736C12.3172 21.8747 12.6052 22.024 12.9466 22.184C13.2986 22.3333 13.6879 22.4667 14.1146 22.584C14.5412 22.7013 14.9732 22.76 15.4106 22.76C15.8799 22.76 16.2266 22.6853 16.4506 22.536C16.6852 22.3867 16.8026 22.1787 16.8026 21.912C16.8026 21.624 16.6799 21.4 16.4346 21.24C16.1999 21.08 15.8746 20.936 15.4586 20.808C15.0532 20.68 14.5839 20.536 14.0506 20.376C13.3572 20.1627 12.7812 19.9227 12.3226 19.656C11.8746 19.3893 11.5386 19.064 11.3146 18.68C11.1012 18.296 10.9946 17.816 10.9946 17.24C10.9946 16.44 11.1812 15.768 11.5546 15.224C11.9386 14.6693 12.4506 14.2533 13.0906 13.976C13.7306 13.688 14.4292 13.544 15.1866 13.544C15.7199 13.544 16.2319 13.608 16.7226 13.736C17.2239 13.864 17.6879 14.024 18.1146 14.216C18.5519 14.408 18.9412 14.6 19.2826 14.792L18.1306 16.968ZM30.9343 13.64V25H28.3103V20.344H23.7823V25H21.1583V13.64H23.7823V18.04H28.3103V13.64H30.9343ZM35.9754 13.64H38.8074L42.7114 25H40.0234L39.1434 22.456H35.6074L34.7434 25H32.0554L35.9754 13.64ZM38.7114 20.648L37.3834 16.28L36.0234 20.648H38.7114ZM46.4542 18.504V25H43.8302V13.64H45.9102L51.1742 20.328V13.64H53.7982V25H51.6542L46.4542 18.504ZM62.7868 16.968C62.7548 16.9147 62.6428 16.8347 62.4508 16.728C62.2588 16.6107 62.0188 16.488 61.7308 16.36C61.4428 16.232 61.1281 16.12 60.7868 16.024C60.4455 15.928 60.1041 15.88 59.7628 15.88C59.3148 15.88 58.9681 15.96 58.7228 16.12C58.4775 16.2693 58.3548 16.504 58.3548 16.824C58.3548 17.08 58.4455 17.2827 58.6268 17.432C58.8188 17.5813 59.0908 17.7147 59.4428 17.832C59.7948 17.9387 60.2268 18.0667 60.7388 18.216C61.4641 18.408 62.0935 18.6427 62.6268 18.92C63.1601 19.1867 63.5655 19.5333 63.8428 19.96C64.1308 20.3867 64.2748 20.952 64.2748 21.656C64.2748 22.296 64.1575 22.84 63.9228 23.288C63.6881 23.7253 63.3681 24.0827 62.9628 24.36C62.5681 24.6267 62.1148 24.824 61.6028 24.952C61.0908 25.0693 60.5628 25.128 60.0188 25.128C59.4641 25.128 58.8935 25.0747 58.3068 24.968C57.7308 24.8507 57.1761 24.6907 56.6428 24.488C56.1095 24.2747 55.6188 24.0187 55.1708 23.72L56.3228 21.432C56.3655 21.4853 56.5041 21.5867 56.7388 21.736C56.9735 21.8747 57.2615 22.024 57.6028 22.184C57.9548 22.3333 58.3441 22.4667 58.7708 22.584C59.1975 22.7013 59.6295 22.76 60.0668 22.76C60.5361 22.76 60.8828 22.6853 61.1068 22.536C61.3415 22.3867 61.4588 22.1787 61.4588 21.912C61.4588 21.624 61.3361 21.4 61.0908 21.24C60.8561 21.08 60.5308 20.936 60.1148 20.808C59.7095 20.68 59.2401 20.536 58.7068 20.376C58.0135 20.1627 57.4375 19.9227 56.9788 19.656C56.5308 19.3893 56.1948 19.064 55.9708 18.68C55.7575 18.296 55.6508 17.816 55.6508 17.24C55.6508 16.44 55.8375 15.768 56.2108 15.224C56.5948 14.6693 57.1068 14.2533 57.7468 13.976C58.3868 13.688 59.0855 13.544 59.8428 13.544C60.3761 13.544 60.8881 13.608 61.3788 13.736C61.8801 13.864 62.3441 14.024 62.7708 14.216C63.2081 14.408 63.5975 14.6 63.9388 14.792L62.7868 16.968ZM68.4129 13.64H71.2449L75.1489 25H72.4609L71.5809 22.456H68.0449L67.1809 25H64.4929L68.4129 13.64ZM71.1489 20.648L69.8209 16.28L68.4609 20.648H71.1489ZM76.8402 13.64L79.2882 18.664L81.7682 13.64H84.6322L80.5842 21.128V25H77.9762V21.096L73.9922 13.64H76.8402ZM92.0056 16.968C91.9736 16.9147 91.8616 16.8347 91.6696 16.728C91.4776 16.6107 91.2376 16.488 90.9496 16.36C90.6616 16.232 90.3469 16.12 90.0056 16.024C89.6642 15.928 89.3229 15.88 88.9816 15.88C88.5336 15.88 88.1869 15.96 87.9416 16.12C87.6962 16.2693 87.5736 16.504 87.5736 16.824C87.5736 17.08 87.6642 17.2827 87.8456 17.432C88.0376 17.5813 88.3096 17.7147 88.6616 17.832C89.0136 17.9387 89.4456 18.0667 89.9576 18.216C90.6829 18.408 91.3122 18.6427 91.8456 18.92C92.3789 19.1867 92.7842 19.5333 93.0616 19.96C93.3496 20.3867 93.4936 20.952 93.4936 21.656C93.4936 22.296 93.3762 22.84 93.1416 23.288C92.9069 23.7253 92.5869 24.0827 92.1816 24.36C91.7869 24.6267 91.3336 24.824 90.8216 24.952C90.3096 25.0693 89.7816 25.128 89.2376 25.128C88.6829 25.128 88.1122 25.0747 87.5256 24.968C86.9496 24.8507 86.3949 24.6907 85.8616 24.488C85.3282 24.2747 84.8376 24.0187 84.3896 23.72L85.5416 21.432C85.5842 21.4853 85.7229 21.5867 85.9576 21.736C86.1922 21.8747 86.4802 22.024 86.8216 22.184C87.1736 22.3333 87.5629 22.4667 87.9896 22.584C88.4162 22.7013 88.8482 22.76 89.2856 22.76C89.7549 22.76 90.1016 22.6853 90.3256 22.536C90.5602 22.3867 90.6776 22.1787 90.6776 21.912C90.6776 21.624 90.5549 21.4 90.3096 21.24C90.0749 21.08 89.7496 20.936 89.3336 20.808C88.9282 20.68 88.4589 20.536 87.9256 20.376C87.2322 20.1627 86.6562 19.9227 86.1976 19.656C85.7496 19.3893 85.4136 19.064 85.1896 18.68C84.9762 18.296 84.8696 17.816 84.8696 17.24C84.8696 16.44 85.0562 15.768 85.4296 15.224C85.8136 14.6693 86.3256 14.2533 86.9656 13.976C87.6056 13.688 88.3042 13.544 89.0616 13.544C89.5949 13.544 90.1069 13.608 90.5976 13.736C91.0989 13.864 91.5629 14.024 91.9896 14.216C92.4269 14.408 92.8162 14.6 93.1576 14.792L92.0056 16.968ZM94.8093 25V22.392H96.9053V25H94.8093Z" fill="white"/>
<path d="M11.95 47.85C11.918 47.862 11.868 47.884 11.8 47.916C11.732 47.948 11.65 47.976 11.554 48C11.458 48.024 11.354 48.036 11.242 48.036C11.126 48.036 11.016 48.014 10.912 47.97C10.812 47.926 10.732 47.86 10.672 47.772C10.612 47.68 10.582 47.568 10.582 47.436V45.198H10.15V44.874H10.582V43.818H10.99V44.874H11.71V45.198H10.99V47.322C10.998 47.434 11.038 47.518 11.11 47.574C11.186 47.63 11.272 47.658 11.368 47.658C11.48 47.658 11.582 47.64 11.674 47.604C11.766 47.564 11.822 47.536 11.842 47.52L11.95 47.85ZM13.757 48.06C13.533 48.06 13.325 48.018 13.133 47.934C12.941 47.846 12.775 47.728 12.635 47.58C12.495 47.428 12.385 47.254 12.305 47.058C12.229 46.862 12.191 46.652 12.191 46.428C12.191 46.136 12.257 45.868 12.389 45.624C12.525 45.38 12.711 45.186 12.947 45.042C13.183 44.894 13.451 44.82 13.751 44.82C14.059 44.82 14.327 44.894 14.555 45.042C14.787 45.19 14.969 45.386 15.101 45.63C15.233 45.87 15.299 46.134 15.299 46.422C15.299 46.454 15.299 46.486 15.299 46.518C15.299 46.546 15.297 46.568 15.293 46.584H12.617C12.637 46.808 12.699 47.008 12.803 47.184C12.911 47.356 13.049 47.494 13.217 47.598C13.389 47.698 13.575 47.748 13.775 47.748C13.979 47.748 14.171 47.696 14.351 47.592C14.535 47.488 14.663 47.352 14.735 47.184L15.089 47.28C15.025 47.428 14.927 47.562 14.795 47.682C14.663 47.802 14.507 47.896 14.327 47.964C14.151 48.028 13.961 48.06 13.757 48.06ZM12.605 46.29H14.915C14.899 46.062 14.837 45.862 14.729 45.69C14.625 45.518 14.487 45.384 14.315 45.288C14.147 45.188 13.961 45.138 13.757 45.138C13.553 45.138 13.367 45.188 13.199 45.288C13.031 45.384 12.893 45.52 12.785 45.696C12.681 45.868 12.621 46.066 12.605 46.29ZM15.9073 44.874L16.8253 46.098L16.8733 46.188L16.9213 46.098L17.8333 44.874H18.2953L17.1073 46.446L18.2953 48H17.8333L16.9213 46.782L16.8733 46.698L16.8253 46.782L15.9133 48H15.4513L16.6333 46.446L15.4513 44.874H15.9073ZM20.3348 47.85C20.3028 47.862 20.2528 47.884 20.1848 47.916C20.1168 47.948 20.0348 47.976 19.9388 48C19.8428 48.024 19.7388 48.036 19.6268 48.036C19.5108 48.036 19.4008 48.014 19.2968 47.97C19.1968 47.926 19.1168 47.86 19.0568 47.772C18.9968 47.68 18.9668 47.568 18.9668 47.436V45.198H18.5348V44.874H18.9668V43.818H19.3748V44.874H20.0948V45.198H19.3748V47.322C19.3828 47.434 19.4228 47.518 19.4948 47.574C19.5708 47.63 19.6568 47.658 19.7528 47.658C19.8648 47.658 19.9668 47.64 20.0588 47.604C20.1508 47.564 20.2068 47.536 20.2268 47.52L20.3348 47.85ZM23.8738 47.85C23.8418 47.862 23.7918 47.884 23.7238 47.916C23.6558 47.948 23.5738 47.976 23.4778 48C23.3818 48.024 23.2778 48.036 23.1658 48.036C23.0498 48.036 22.9398 48.014 22.8358 47.97C22.7358 47.926 22.6558 47.86 22.5958 47.772C22.5358 47.68 22.5058 47.568 22.5058 47.436V45.198H22.0738V44.874H22.5058V43.818H22.9138V44.874H23.6338V45.198H22.9138V47.322C22.9218 47.434 22.9618 47.518 23.0338 47.574C23.1098 47.63 23.1958 47.658 23.2918 47.658C23.4038 47.658 23.5058 47.64 23.5978 47.604C23.6898 47.564 23.7458 47.536 23.7658 47.52L23.8738 47.85ZM25.6629 48.06C25.4389 48.06 25.2309 48.018 25.0389 47.934C24.8509 47.846 24.6869 47.728 24.5469 47.58C24.4109 47.428 24.3049 47.256 24.2289 47.064C24.1529 46.868 24.1149 46.662 24.1149 46.446C24.1149 46.222 24.1529 46.014 24.2289 45.822C24.3049 45.626 24.4129 45.454 24.5529 45.306C24.6929 45.154 24.8569 45.036 25.0449 44.952C25.2369 44.864 25.4449 44.82 25.6689 44.82C25.8929 44.82 26.0989 44.864 26.2869 44.952C26.4749 45.036 26.6389 45.154 26.7789 45.306C26.9189 45.454 27.0269 45.626 27.1029 45.822C27.1789 46.014 27.2169 46.222 27.2169 46.446C27.2169 46.662 27.1789 46.868 27.1029 47.064C27.0269 47.256 26.9189 47.428 26.7789 47.58C26.6429 47.728 26.4789 47.846 26.2869 47.934C26.0989 48.018 25.8909 48.06 25.6629 48.06ZM24.5289 46.452C24.5289 46.684 24.5789 46.896 24.6789 47.088C24.7829 47.276 24.9209 47.426 25.0929 47.538C25.2649 47.646 25.4549 47.7 25.6629 47.7C25.8709 47.7 26.0609 47.644 26.2329 47.532C26.4049 47.42 26.5429 47.268 26.6469 47.076C26.7509 46.88 26.8029 46.668 26.8029 46.44C26.8029 46.208 26.7509 45.996 26.6469 45.804C26.5429 45.612 26.4049 45.46 26.2329 45.348C26.0609 45.236 25.8709 45.18 25.6629 45.18C25.4549 45.18 25.2649 45.238 25.0929 45.354C24.9249 45.47 24.7889 45.624 24.6849 45.816C24.5809 46.004 24.5289 46.216 24.5289 46.452ZM30.4545 48.06C30.1985 48.06 29.9605 48.018 29.7405 47.934C29.5205 47.85 29.3305 47.722 29.1705 47.55L29.3385 47.262C29.5145 47.426 29.6905 47.546 29.8665 47.622C30.0465 47.694 30.2365 47.73 30.4365 47.73C30.6805 47.73 30.8785 47.682 31.0305 47.586C31.1825 47.486 31.2585 47.344 31.2585 47.16C31.2585 47.036 31.2205 46.942 31.1445 46.878C31.0725 46.81 30.9665 46.756 30.8265 46.716C30.6905 46.672 30.5265 46.626 30.3345 46.578C30.1185 46.518 29.9365 46.456 29.7885 46.392C29.6445 46.324 29.5345 46.24 29.4585 46.14C29.3865 46.036 29.3505 45.902 29.3505 45.738C29.3505 45.534 29.4005 45.366 29.5005 45.234C29.6045 45.098 29.7445 44.996 29.9205 44.928C30.1005 44.856 30.3005 44.82 30.5205 44.82C30.7605 44.82 30.9725 44.858 31.1565 44.934C31.3405 45.01 31.4905 45.116 31.6065 45.252L31.4085 45.528C31.2965 45.4 31.1625 45.306 31.0065 45.246C30.8545 45.182 30.6845 45.15 30.4965 45.15C30.3685 45.15 30.2465 45.168 30.1305 45.204C30.0145 45.236 29.9185 45.292 29.8425 45.372C29.7705 45.448 29.7345 45.554 29.7345 45.69C29.7345 45.802 29.7625 45.89 29.8185 45.954C29.8745 46.014 29.9585 46.066 30.0705 46.11C30.1825 46.15 30.3205 46.194 30.4845 46.242C30.7205 46.306 30.9265 46.372 31.1025 46.44C31.2785 46.504 31.4145 46.588 31.5105 46.692C31.6065 46.796 31.6545 46.942 31.6545 47.13C31.6545 47.422 31.5445 47.65 31.3245 47.814C31.1045 47.978 30.8145 48.06 30.4545 48.06ZM33.9249 48.06C33.6649 48.06 33.4309 47.992 33.2229 47.856C33.0189 47.72 32.8569 47.552 32.7369 47.352V49.278H32.3289V44.874H32.6949V45.48C32.8189 45.284 32.9849 45.126 33.1929 45.006C33.4009 44.882 33.6229 44.82 33.8589 44.82C34.0749 44.82 34.2729 44.866 34.4529 44.958C34.6329 45.046 34.7889 45.166 34.9209 45.318C35.0529 45.47 35.1549 45.644 35.2269 45.84C35.3029 46.032 35.3409 46.232 35.3409 46.44C35.3409 46.732 35.2809 47.002 35.1609 47.25C35.0449 47.494 34.8809 47.69 34.6689 47.838C34.4569 47.986 34.2089 48.06 33.9249 48.06ZM33.8109 47.7C33.9829 47.7 34.1369 47.666 34.2729 47.598C34.4089 47.526 34.5249 47.43 34.6209 47.31C34.7209 47.19 34.7969 47.056 34.8489 46.908C34.9009 46.756 34.9269 46.6 34.9269 46.44C34.9269 46.272 34.8969 46.112 34.8369 45.96C34.7809 45.808 34.6989 45.674 34.5909 45.558C34.4829 45.442 34.3589 45.35 34.2189 45.282C34.0789 45.214 33.9269 45.18 33.7629 45.18C33.6589 45.18 33.5509 45.2 33.4389 45.24C33.3269 45.28 33.2189 45.338 33.1149 45.414C33.0149 45.486 32.9309 45.568 32.8629 45.66C32.7949 45.752 32.7529 45.85 32.7369 45.954V46.914C32.8009 47.062 32.8869 47.196 32.9949 47.316C33.1029 47.432 33.2269 47.526 33.3669 47.598C33.5109 47.666 33.6589 47.7 33.8109 47.7ZM37.382 48.06C37.158 48.06 36.95 48.018 36.758 47.934C36.566 47.846 36.4 47.728 36.26 47.58C36.12 47.428 36.01 47.254 35.93 47.058C35.854 46.862 35.816 46.652 35.816 46.428C35.816 46.136 35.882 45.868 36.014 45.624C36.15 45.38 36.336 45.186 36.572 45.042C36.808 44.894 37.076 44.82 37.376 44.82C37.684 44.82 37.952 44.894 38.18 45.042C38.412 45.19 38.594 45.386 38.726 45.63C38.858 45.87 38.924 46.134 38.924 46.422C38.924 46.454 38.924 46.486 38.924 46.518C38.924 46.546 38.922 46.568 38.918 46.584H36.242C36.262 46.808 36.324 47.008 36.428 47.184C36.536 47.356 36.674 47.494 36.842 47.598C37.014 47.698 37.2 47.748 37.4 47.748C37.604 47.748 37.796 47.696 37.976 47.592C38.16 47.488 38.288 47.352 38.36 47.184L38.714 47.28C38.65 47.428 38.552 47.562 38.42 47.682C38.288 47.802 38.132 47.896 37.952 47.964C37.776 48.028 37.586 48.06 37.382 48.06ZM36.23 46.29H38.54C38.524 46.062 38.462 45.862 38.354 45.69C38.25 45.518 38.112 45.384 37.94 45.288C37.772 45.188 37.586 45.138 37.382 45.138C37.178 45.138 36.992 45.188 36.824 45.288C36.656 45.384 36.518 45.52 36.41 45.696C36.306 45.868 36.246 46.066 36.23 46.29ZM40.9035 48.06C40.6795 48.06 40.4715 48.018 40.2795 47.934C40.0875 47.846 39.9215 47.728 39.7815 47.58C39.6415 47.428 39.5315 47.254 39.4515 47.058C39.3755 46.862 39.3375 46.652 39.3375 46.428C39.3375 46.136 39.4035 45.868 39.5355 45.624C39.6715 45.38 39.8575 45.186 40.0935 45.042C40.3295 44.894 40.5975 44.82 40.8975 44.82C41.2055 44.82 41.4735 44.894 41.7015 45.042C41.9335 45.19 42.1155 45.386 42.2475 45.63C42.3795 45.87 42.4455 46.134 42.4455 46.422C42.4455 46.454 42.4455 46.486 42.4455 46.518C42.4455 46.546 42.4435 46.568 42.4395 46.584H39.7635C39.7835 46.808 39.8455 47.008 39.9495 47.184C40.0575 47.356 40.1955 47.494 40.3635 47.598C40.5355 47.698 40.7215 47.748 40.9215 47.748C41.1255 47.748 41.3175 47.696 41.4975 47.592C41.6815 47.488 41.8095 47.352 41.8815 47.184L42.2355 47.28C42.1715 47.428 42.0735 47.562 41.9415 47.682C41.8095 47.802 41.6535 47.896 41.4735 47.964C41.2975 48.028 41.1075 48.06 40.9035 48.06ZM39.7515 46.29H42.0615C42.0455 46.062 41.9835 45.862 41.8755 45.69C41.7715 45.518 41.6335 45.384 41.4615 45.288C41.2935 45.188 41.1075 45.138 40.9035 45.138C40.6995 45.138 40.5135 45.188 40.3455 45.288C40.1775 45.384 40.0395 45.52 39.9315 45.696C39.8275 45.868 39.7675 46.066 39.7515 46.29ZM44.431 48.06C44.203 48.06 43.993 48.018 43.801 47.934C43.613 47.846 43.447 47.726 43.303 47.574C43.163 47.422 43.053 47.248 42.973 47.052C42.897 46.856 42.859 46.648 42.859 46.428C42.859 46.132 42.925 45.862 43.057 45.618C43.189 45.374 43.373 45.18 43.609 45.036C43.845 44.892 44.117 44.82 44.425 44.82C44.717 44.82 44.975 44.888 45.199 45.024C45.423 45.156 45.589 45.336 45.697 45.564L45.301 45.69C45.213 45.53 45.089 45.406 44.929 45.318C44.773 45.226 44.599 45.18 44.407 45.18C44.199 45.18 44.009 45.234 43.837 45.342C43.665 45.45 43.527 45.598 43.423 45.786C43.323 45.974 43.273 46.188 43.273 46.428C43.273 46.664 43.325 46.878 43.429 47.07C43.533 47.262 43.671 47.416 43.843 47.532C44.015 47.644 44.205 47.7 44.413 47.7C44.549 47.7 44.679 47.676 44.803 47.628C44.931 47.58 45.041 47.516 45.133 47.436C45.229 47.352 45.293 47.262 45.325 47.166L45.727 47.286C45.671 47.434 45.577 47.568 45.445 47.688C45.317 47.804 45.165 47.896 44.989 47.964C44.817 48.028 44.631 48.06 44.431 48.06ZM48.996 48H48.588V46.254C48.588 45.902 48.526 45.638 48.402 45.462C48.278 45.282 48.1 45.192 47.868 45.192C47.716 45.192 47.564 45.232 47.412 45.312C47.264 45.388 47.132 45.494 47.016 45.63C46.904 45.762 46.824 45.914 46.776 46.086V48H46.368V43.62H46.776V45.582C46.9 45.35 47.072 45.166 47.292 45.03C47.516 44.89 47.754 44.82 48.006 44.82C48.186 44.82 48.338 44.852 48.462 44.916C48.59 44.98 48.692 45.074 48.768 45.198C48.848 45.318 48.906 45.46 48.942 45.624C48.978 45.784 48.996 45.966 48.996 46.17V48Z" fill="black"/>
<path d="M98 39H108V49L98 39Z" fill="#B5BD9A"/>
</g>
<defs>
<clipPath id="clip0_322_292">
<rect width="108" height="49" fill="white"/>
</clipPath>
</defs>
</svg>
